<svg xmlns="http://www.w3.org/2000/svg" width="200" height="200" viewBox="0 0 200 200" role="img" aria-labelledby="aitrace-title aitrace-desc">
  <title id="aitrace-title">AITrace</title>
  <desc id="aitrace-desc">A hexagonal execution-cinema lens with trace spans, causal graph, replay playhead, redaction spillover refs, and export receipt.</desc>
  <defs>
    <clipPath id="aitrace-hex">
      <path d="M100 4 L183 52 L183 148 L100 196 L17 148 L17 52 Z"/>
    </clipPath>
    <radialGradient id="aitrace-bg" cx="50%" cy="44%" r="72%">
      <stop offset="0" stop-color="#183e5e"/>
      <stop offset="0.55" stop-color="#101a2d"/>
      <stop offset="1" stop-color="#080a10"/>
    </radialGradient>
    <linearGradient id="aitrace-lens" x1="48" y1="64" x2="152" y2="138" gradientUnits="userSpaceOnUse">
      <stop offset="0" stop-color="#91f7ff"/>
      <stop offset="0.48" stop-color="#bba0ff"/>
      <stop offset="1" stop-color="#ffd36e"/>
    </linearGradient>
    <filter id="aitrace-glow" x="-30%" y="-30%" width="160%" height="160%">
      <feGaussianBlur stdDeviation="2.2" result="blur"/>
      <feMerge>
        <feMergeNode in="blur"/>
        <feMergeNode in="SourceGraphic"/>
      </feMerge>
    </filter>
  </defs>
  <g clip-path="url(#aitrace-hex)">
    <path d="M100 4 L183 52 L183 148 L100 196 L17 148 L17 52 Z" fill="url(#aitrace-bg)"/>
    <g stroke="#91f7ff" stroke-width="1.6" opacity="0.26" fill="none">
      <path d="M33 64 H167"/>
      <path d="M33 100 H167"/>
      <path d="M33 136 H167"/>
      <path d="M64 44 V156"/>
      <path d="M100 28 V172"/>
      <path d="M136 44 V156"/>
    </g>
    <g filter="url(#aitrace-glow)">
      <path d="M42 100 C58 72 78 59 100 59 C122 59 142 72 158 100 C142 128 122 141 100 141 C78 141 58 128 42 100 Z" fill="#0b1220" stroke="url(#aitrace-lens)" stroke-width="4"/>
      <circle cx="100" cy="100" r="29" fill="none" stroke="#91f7ff" stroke-width="4"/>
      <circle cx="100" cy="100" r="12" fill="url(#aitrace-lens)"/>
      <path d="M96 91 L110 100 L96 109 Z" fill="#0b1220"/>
    </g>
    <g fill="none" stroke-linecap="round" stroke-linejoin="round">
      <path d="M43 54 H73 C88 54 90 76 105 76 H133" stroke="#ffd36e" stroke-width="4"/>
      <path d="M43 146 H72 C86 146 90 124 105 124 H133" stroke="#bba0ff" stroke-width="4"/>
      <path d="M133 76 L144 70 L155 76 V89 L144 95 L133 89 Z" stroke="#ffd36e" stroke-width="3" fill="#0b1220"/>
      <path d="M133 124 L144 118 L155 124 V137 L144 143 L133 137 Z" stroke="#bba0ff" stroke-width="3" fill="#0b1220"/>
    </g>
    <g fill="#0b1220" stroke="#f8fbff" stroke-width="2">
      <rect x="40" y="43" width="26" height="18" rx="4"/>
      <rect x="40" y="139" width="26" height="18" rx="4"/>
      <rect x="121" y="154" width="34" height="18" rx="4"/>
    </g>
    <g stroke="#f8fbff" stroke-width="2" stroke-linecap="round">
      <path d="M47 52 H59"/>
      <path d="M47 148 H59"/>
      <path d="M128 163 H148"/>
    </g>
    <g fill="#91f7ff">
      <circle cx="74" cy="54" r="4"/>
      <circle cx="105" cy="76" r="4"/>
      <circle cx="74" cy="146" r="4"/>
      <circle cx="105" cy="124" r="4"/>
    </g>
    <path d="M100 4 L183 52 L183 148 L100 196 L17 148 L17 52 Z" fill="none" stroke="#d8f7ff" stroke-width="4"/>
  </g>
</svg>
